<?xml version="1.0" encoding="UTF-8" standalone="no"?>
<!DOCTYPE svg PUBLIC "-//W3C//DTD SVG 1.1//EN" "http://www.w3.org/Graphics/SVG/1.1/DTD/svg11.dtd">
<svg version="1.1" xmlns="http://www.w3.org/2000/svg" xmlns:xlink="http://www.w3.org/1999/xlink" preserveAspectRatio="xMidYMid meet" viewBox="0 0 640 640" width="640" height="640"><defs><path d="M254.05 380.37C254.05 429.84 299.02 470 354.41 470C409.81 470 454.78 429.84 454.78 380.37C454.78 355.88 443.76 333.67 425.91 317.49C407.7 300.98 382.39 290.74 354.41 290.74C299.02 290.74 254.05 330.9 254.05 380.37Z" id="c23wKhmxLp"></path><path d="M228.86 246.35L278.86 246.35L278.86 386.91L228.86 386.91L228.86 246.35Z" id="e2JxPN3cGl"></path><path d="M230 190L280 190L280 223.22L230 223.22L230 190Z" id="b3IHPSOb0"></path><path d="M280.18 150L230 190.42L280.18 190.42L280.18 150Z" id="c5BVqfOejq"></path></defs><g><g><g><use xlink:href="#c23wKhmxLp" opacity="1" fill="#ffffff" fill-opacity="0"></use><g><use xlink:href="#c23wKhmxLp" opacity="1" fill-opacity="0" stroke="#000000" stroke-width="50" stroke-opacity="1"></use></g></g><g><use xlink:href="#e2JxPN3cGl" opacity="1" fill="#000000" fill-opacity="1"></use></g><g><use xlink:href="#b3IHPSOb0" opacity="1" fill="#000000" fill-opacity="1"></use></g><g><use xlink:href="#c5BVqfOejq" opacity="1" fill="#000000" fill-opacity="1"></use></g></g></g></svg>