<?xml version="1.0" encoding="UTF-8" standalone="no"?>
<!DOCTYPE svg PUBLIC "-//W3C//DTD SVG 1.1//EN" "http://www.w3.org/Graphics/SVG/1.1/DTD/svg11.dtd">
<svg version="1.1" xmlns="http://www.w3.org/2000/svg" xmlns:xlink="http://www.w3.org/1999/xlink" preserveAspectRatio="xMidYMid meet" viewBox="0 0 640 640" width="512" height="512"><defs><path d="M253.27 370C253.27 424.67 298.24 469.05 353.64 469.05C409.03 469.05 454 424.67 454 370C454 342.94 442.98 318.4 425.13 300.52C406.92 282.27 381.61 270.95 353.64 270.95C298.24 270.95 253.27 315.33 253.27 370Z" id="beVL2fPGI"></path><path d="M228.18 221.91L278.18 221.91L278.18 377.23L228.18 377.23L228.18 221.91Z" id="n11QhJD1BD"></path><path d="M226.09 159.4L276.09 159.4L276.09 196.11L226.09 196.11L226.09 159.4Z" id="dAXI6nWB1"></path><path d="M276.18 115.44L226 160.1L276.18 160.1L276.18 115.44Z" id="bf3jzX7ik"></path></defs><g><g><g><g><use xlink:href="#beVL2fPGI" opacity="1" fill="#ffffff" fill-opacity="0"></use><g><use xlink:href="#beVL2fPGI" opacity="1" fill-opacity="0" stroke="#ffffff" stroke-width="50" stroke-opacity="1"></use></g></g><g><use xlink:href="#n11QhJD1BD" opacity="1" fill="#ffffff" fill-opacity="1"></use></g><g><use xlink:href="#dAXI6nWB1" opacity="1" fill="#ffffff" fill-opacity="1"></use></g><g><use xlink:href="#bf3jzX7ik" opacity="1" fill="#ffffff" fill-opacity="1"></use></g></g></g></g></svg>